<?xml version="1.0" encoding="utf-8"?>
<svg version="1.1" xmlns:xlink="http://www.w3.org/1999/xlink" width="18px" height="34px" xmlns="http://www.w3.org/2000/svg">
  <g transform="matrix(1 0 0 1 -1726 -598 )">
    <path d="M 0.309278350515465 2.0440881763527  C 0.103092783505152 2.27120908483634  0 2.53239812959251  0 2.82765531062124  C 0 3.12291249164997  0.103092783505152 3.38410153640614  0.309278350515465 3.61122244488978  L 12.4639175257732 17  L 0.309278350515465 30.3887775551102  C 0.103092783505152 30.6158984635939  0 30.87708750835  0 31.1723446893788  C 0 31.4676018704075  0.103092783505152 31.7287909151637  0.309278350515465 31.9559118236473  L 1.85567010309278 33.6593186372746  C 2.06185567010309 33.8864395457582  2.29896907216495 34  2.56701030927835 34  C 2.83505154639175 34  3.07216494845361 33.8864395457582  3.27835051546392 33.6593186372746  L 17.6907216494845 17.7835671342685  C 17.8969072164948 17.5564462257849  18 17.2952571810287  18 17  C 18 16.7047428189713  17.8969072164948 16.4435537742151  17.6907216494845 16.2164328657315  L 3.27835051546392 0.340681362725451  C 3.07216494845361 0.113560454241816  2.83505154639175 0  2.56701030927835 0  C 2.29896907216495 0  2.06185567010309 0.113560454241816  1.85567010309278 0.340681362725451  L 0.309278350515465 2.0440881763527  Z " fill-rule="nonzero" fill="#939393" stroke="none" transform="matrix(1 0 0 1 1726 598 )" />
  </g>
</svg>